<!DOCTYPE svg PUBLIC "-//W3C//DTD SVG 1.1//EN" "http://www.w3.org/Graphics/SVG/1.1/DTD/svg11.dtd">

<!-- Uploaded to: SVG Repo, www.svgrepo.com, Transformed by: SVG Repo Mixer Tools -->
<svg fill="#fff" version="1.1" id="Capa_1" xmlns="http://www.w3.org/2000/svg" xmlns:xlink="http://www.w3.org/1999/xlink" width="64px" height="64px" viewBox="0 0 484.028 484.028" xml:space="preserve" stroke="red">

<g id="SVGRepo_bgCarrier" stroke-width="0"/>

<g id="SVGRepo_tracerCarrier" stroke-linecap="round" stroke-linejoin="round"/>

<g id="SVGRepo_iconCarrier"> <g> <g id="_x36_4_53_"> <g> <path d="M384.304,155.58l21.642-22.831c5.702-6.017,5.448-15.517-0.564-21.218l-18.156-17.209 c-6.016-5.704-15.514-5.449-21.217,0.568l-24.756,26.113c-19.52-11.58-41.218-19.85-64.323-24.042V65.039h29.499 c8.291,0,15.01-6.72,15.01-15.009V15.009c0-8.29-6.719-15.009-15.01-15.009H177.603c-8.291,0-15.01,6.719-15.01,15.009V50.03 c0,8.289,6.719,15.009,15.01,15.009h29.075v32.002c-23.428,4.304-45.408,12.795-65.124,24.687 c-0.15-0.156-0.289-0.319-0.447-0.469L112.97,94.583c-6.018-5.701-15.516-5.449-21.219,0.568l-17.209,18.157 c-5.701,6.013-5.449,15.514,0.568,21.216l23.488,22.268c-32.066,34.781-51.688,81.204-51.688,132.13 c0,107.582,87.523,195.106,195.104,195.106c107.581,0,195.104-87.524,195.104-195.106 C437.118,237.402,417.038,190.49,384.304,155.58z M242.015,449.027c-88.281,0-160.104-71.822-160.104-160.105 s71.822-160.106,160.104-160.106c88.282,0,160.104,71.823,160.104,160.106C402.118,377.204,330.296,449.027,242.015,449.027z"/> <path d="M312.845,251.783c-33.749-23.979-61.724,7.992-68.385,7.992c-0.125,0-0.763,0-0.89,0 c-6.659,0-34.635-31.972-68.384-7.992c-33.749,23.979-8.437,138.546,55.951,138.546c5.149,0,9.374,0,13.655,0 c3.769,0,7.577,0,12.103,0C321.281,390.329,346.593,275.762,312.845,251.783z"/> <path d="M245.648,249.999c9.483-3.668,62.164-50.884,27.948-71.722c-31.271-19.045-40.076,49.044-35.084,67.502 C238.758,247.833,242.476,250.361,245.648,249.999z"/> </g> </g> </g> </g>

</svg>
